{"title":"Men in Black 3 2012 V2 HD TS XViD AC3-ADTRG","uid":7319352,"size":1520878078,"categoryP":"video","categoryS":"movies","magnet":"?xt=urn:btih:070d542baff4a926a683013d9de6259521513044&amp;dn=Men+in+Black+3+2012+V2+HD+TS+XViD+AC3-ADTRG&amp;tr=udp%3A%2F%2Ftracker.openbittorrent.com%3A80&amp;tr=udp%3A%2F%2Fopen.demonii.com%3A1337&amp;tr=udp%3A%2F%2Ftracker.coppersurfer.tk%3A6969&amp;tr=udp%3A%2F%2Fexodus.desync.com%3A6969","seeders":5,"leechers":0,"uploader":"HeroMaster","files":-1,"time":1338578694,"description":"Men in Black 3 2012 V2 HD TS XViD AC3-ADTRG\n\nAgent J travels in time to MIB's early years in the 1960s, to stop an alien from assassinating his friend Agent K and changing history. \n &lt;a href=&quot;\nhttp://www.imdb.com/title/tt1409024/&quot; rel=&quot;nofollow&quot; target=&quot;_NEW&quot;&gt;\nhttp://www.imdb.com/title/tt1409024/&lt;/a&gt;\n\nSource -  full Cam - Russans - Thanks, Amazing work on this  (except end credits)\nSource -  full LiNe Audio    - Dragon Exclusive  Thanks, Awesome work bro    (except end credits)\n\nFormat                                   : AVI\nFormat/Info                              : Audio Video Interleave\nFile size                                : 1.40 GiB\nDuration                                 : 1h 37mn\nOverall bit rate                         : 2 056 Kbps\n\nVideo\nID                                       : 0\nFormat                                   : MPEG-4 Visual\nCodec ID                                 : XVID\nBit rate                                 : 1 854 Kbps\nWidth                                    : 720 pixels\nHeight                                   : 352 pixels\nDisplay aspect ratio                     : 2.045\nFrame rate                               : 23.976 fps\nStream size                              : 1.27 GiB (90%)\n\nAudio\nID                                       : 1\nFormat                                   : AC-3\nBit rate                                 : 192 Kbps\nChannel(s)                               : 2 channels\nSampling rate                            : 48.0 KHz\nStream size                              : 134 MiB (9%)\n\n\nAwesome Cam , Awesome LiNe, Awesome Sync  ..... awesome awesome awesome \n\n\nthis is the full movie now!\n\n\nPoster:\n\n &lt;a href=&quot;\nhttp://i.imgur.com/hYg8l.jpg&quot; rel=&quot;nofollow&quot; target=&quot;_NEW&quot;&gt;\nhttp://i.imgur.com/hYg8l.jpg&lt;/a&gt;\n\n\nScreenshots:\n\n &lt;a href=&quot;\nhttp://i.imgur.com/OpiDn.jpg&quot; rel=&quot;nofollow&quot; target=&quot;_NEW&quot;&gt;\nhttp://i.imgur.com/OpiDn.jpg&lt;/a&gt;\n\n\nENJOY!","torrent":{"xt":"urn:btih:070d542baff4a926a683013d9de6259521513044","amp;dn":"Men+in+Black+3+2012+V2+HD+TS+XViD+AC3-ADTRG","amp;tr":["udp%3A%2F%2Ftracker.openbittorrent.com%3A80","udp%3A%2F%2Fopen.demonii.com%3A1337","udp%3A%2F%2Ftracker.coppersurfer.tk%3A6969","udp%3A%2F%2Fexodus.desync.com%3A6969"],"infoHash":"070d542baff4a926a683013d9de6259521513044","infoHashBuffer":{"type":"Buffer","data":[7,13,84,43,175,244,169,38,166,131,1,61,157,230,37,149,33,81,48,68]},"announce":[],"urlList":[]}}